<svg width="40" height="40" viewBox="0 0 40 40" fill="none" xmlns="http://www.w3.org/2000/svg">
<circle cx="20" cy="20" r="20" fill="#FEE500"/>
<path d="M20.0579 9.65234C13.8355 9.65234 8.81738 13.6668 8.81738 18.5403C8.81738 21.7037 10.9049 24.4737 14.0362 26.0554L12.9764 30.0137C12.9564 30.073 12.9533 30.1367 12.9675 30.1977C12.9817 30.2586 13.0125 30.3145 13.0567 30.3589C13.121 30.4156 13.2037 30.447 13.2895 30.4472C13.3606 30.4415 13.4281 30.4134 13.4822 30.3669L18.0426 27.2919C18.7158 27.3848 19.3944 27.433 20.0739 27.4363C26.2883 27.4363 31.3144 23.4219 31.3144 18.5403C31.3144 13.6587 26.2723 9.65234 20.0579 9.65234Z" fill="#392020"/>
<path d="M12.7512 17.1352H11.5227C11.3705 17.1396 11.2201 17.1007 11.0892 17.0228C11.0311 16.9864 10.9811 16.9383 10.9424 16.8817C10.9037 16.825 10.8771 16.761 10.8644 16.6936C10.8605 16.6509 10.8605 16.6079 10.8644 16.5652C10.8606 16.4853 10.8761 16.4055 10.9096 16.3328C10.9432 16.2601 10.9937 16.1967 11.0571 16.1477C11.197 16.0463 11.366 15.9928 11.5388 15.9951H15.2401C15.3936 15.9897 15.545 16.0318 15.6737 16.1155C15.7332 16.1504 15.7842 16.198 15.8231 16.2549C15.862 16.3118 15.8877 16.3767 15.8985 16.4448C15.9024 16.4848 15.9024 16.5252 15.8985 16.5652C15.9023 16.6463 15.8868 16.7272 15.8533 16.8011C15.8198 16.8751 15.7693 16.94 15.7058 16.9907C15.5693 17.0919 15.4019 17.143 15.2321 17.1352H14.0438V21.3585C14.0487 21.4484 14.0347 21.5384 14.0029 21.6227C13.9712 21.707 13.9222 21.7838 13.8592 21.8482C13.7987 21.9098 13.7261 21.958 13.6459 21.9898C13.5657 22.0216 13.4797 22.0363 13.3935 22.0329C13.2427 22.0372 13.0951 21.989 12.976 21.8964C12.8626 21.806 12.7856 21.6777 12.7592 21.5351C12.7513 21.4765 12.7513 21.4171 12.7592 21.3585L12.7512 17.1352Z" fill="#FEE500"/>
<path d="M16.2529 16.3084C16.2883 16.1763 16.3712 16.0619 16.4858 15.9872C16.6079 15.918 16.747 15.8846 16.8872 15.8909H17.1923C17.3411 15.8855 17.4884 15.9217 17.6179 15.9953C17.755 16.0875 17.8525 16.2279 17.8908 16.3887L19.4966 20.925C19.5383 21.0434 19.5731 21.1641 19.601 21.2864C19.6037 21.3372 19.6037 21.3881 19.601 21.4389C19.6037 21.5171 19.5893 21.595 19.5588 21.6672C19.5283 21.7393 19.4824 21.8039 19.4244 21.8564C19.3681 21.9141 19.3006 21.9595 19.226 21.9899C19.1514 22.0203 19.0713 22.035 18.9908 22.033C18.867 22.0453 18.7426 22.0156 18.6377 21.9486C18.5329 21.8816 18.4536 21.7813 18.4127 21.6637L18.0755 20.6762H15.9639L15.6267 21.6637C15.5868 21.7836 15.5066 21.8859 15.3997 21.9532C15.2928 22.0206 15.1659 22.0488 15.0406 22.033C14.9048 22.0366 14.7718 21.9941 14.6632 21.9126C14.5574 21.8284 14.486 21.7086 14.4625 21.5754C14.4582 21.53 14.4582 21.4843 14.4625 21.4389C14.4487 21.3592 14.4487 21.2778 14.4625 21.1981C14.4625 21.1098 14.5187 21.0133 14.5508 20.925L16.2529 16.3084ZM17.0558 17.3602L16.2931 19.7689H17.8105L17.0558 17.3602Z" fill="#FEE500"/>
<path d="M19.7849 16.5653C19.7767 16.3851 19.8402 16.2091 19.9615 16.0756C20.0232 16.0134 20.0972 15.9648 20.1788 15.9329C20.2604 15.9011 20.3477 15.8868 20.4352 15.8908C20.5856 15.889 20.7324 15.9371 20.8527 16.0273C20.9642 16.1215 21.0383 16.2525 21.0615 16.3966C21.0694 16.4526 21.0694 16.5094 21.0615 16.5653V20.7885H23.2694C23.4225 20.7865 23.5729 20.8282 23.703 20.9089C23.7614 20.9449 23.8117 20.9929 23.8504 21.0496C23.8891 21.1063 23.9155 21.1705 23.9278 21.2381C23.9278 21.2381 23.9278 21.3184 23.9278 21.3586C23.9316 21.4385 23.9161 21.5182 23.8826 21.5908C23.849 21.6635 23.7984 21.7271 23.7351 21.7761C23.5951 21.8774 23.4262 21.9309 23.2534 21.9286H20.5396C20.3668 21.9397 20.195 21.8947 20.0498 21.8002C19.92 21.7031 19.8335 21.559 19.809 21.3987C19.8031 21.3105 19.8031 21.2219 19.809 21.1337L19.7849 16.5653Z" fill="#FEE500"/>
<path d="M24.0724 16.5652C24.0676 16.3856 24.1307 16.2107 24.2491 16.0755C24.3694 15.9661 24.5238 15.9016 24.6861 15.8928C24.8485 15.884 25.0089 15.9315 25.1403 16.0273C25.2542 16.1206 25.3311 16.2515 25.3571 16.3965C25.361 16.4527 25.361 16.5091 25.3571 16.5652V18.5323L27.3884 16.1878C27.4666 16.1078 27.5498 16.0328 27.6373 15.9631C27.7197 15.9139 27.8143 15.8888 27.9103 15.8907C28.0506 15.89 28.1878 15.932 28.3037 16.0112C28.3583 16.0479 28.4049 16.0954 28.4408 16.1505C28.4766 16.2057 28.501 16.2675 28.5124 16.3324C28.5157 16.3482 28.5157 16.3647 28.5124 16.3806C28.5085 16.3991 28.5085 16.4182 28.5124 16.4367C28.5122 16.5212 28.49 16.6042 28.4482 16.6776C28.4056 16.7554 28.3544 16.828 28.2957 16.8943L26.9628 18.3557L28.5686 20.8446V20.9249C28.652 21.0399 28.717 21.1673 28.7613 21.3023V21.3424C28.7706 21.4354 28.7572 21.5293 28.7222 21.616C28.6873 21.7027 28.6318 21.7796 28.5606 21.8402C28.4267 21.9414 28.2628 21.9951 28.0949 21.9928C27.9834 21.9974 27.8726 21.9724 27.7738 21.9205C27.6668 21.8487 27.5787 21.7524 27.5168 21.6395L26.0235 19.2308L25.3089 19.9775V21.3183C25.3137 21.4979 25.2506 21.6728 25.1323 21.808C25.0688 21.8701 24.9933 21.9185 24.9105 21.9503C24.8276 21.982 24.7392 21.9965 24.6505 21.9928C24.5024 21.9959 24.3577 21.9476 24.241 21.8563C24.1276 21.7659 24.0507 21.6376 24.0243 21.495C24.0163 21.4364 24.0163 21.3769 24.0243 21.3183L24.0724 16.5652Z" fill="#FEE500"/>
</svg>
